<?xml version="1.0" encoding="UTF-8" standalone="no"?>
<svg
   width="1985.0885"
   zoomAndPan="magnify"
   viewBox="0 0 1488.8164 92.749997"
   height="123.66666"
   preserveAspectRatio="xMidYMid"
   version="1.0"
   id="svg38"
   sodipodi:docname="splatcap-logo-wordmark.svg"
   inkscape:version="1.4.3 (0d15f75, 2025-12-25)"
   xmlns:inkscape="http://www.inkscape.org/namespaces/inkscape"
   xmlns:sodipodi="http://sodipodi.sourceforge.net/DTD/sodipodi-0.dtd"
   xmlns="http://www.w3.org/2000/svg"
   xmlns:svg="http://www.w3.org/2000/svg">
  <sodipodi:namedview
     id="namedview38"
     pagecolor="#ffffff"
     bordercolor="#000000"
     borderopacity="0.25"
     inkscape:showpageshadow="2"
     inkscape:pageopacity="0.0"
     inkscape:pagecheckerboard="0"
     inkscape:deskcolor="#d1d1d1"
     inkscape:zoom="0.851"
     inkscape:cx="833.72503"
     inkscape:cy="169.80024"
     inkscape:window-width="1920"
     inkscape:window-height="1111"
     inkscape:window-x="-9"
     inkscape:window-y="-9"
     inkscape:window-maximized="1"
     inkscape:current-layer="svg38" />
  <defs
     id="defs2">
    <g
       id="g1" />
    <clipPath
       id="1154788932">
      <rect
         x="0"
         width="1247"
         y="0"
         height="223"
         id="rect1" />
    </clipPath>
    <clipPath
       id="f0fb8c9cb5">
      <rect
         x="0"
         width="294"
         y="0"
         height="223"
         id="rect2" />
    </clipPath>
  </defs>
  <g
     transform="translate(-5.6008254,-91.804307)"
     id="g30">
    <g
       clip-path="url(#1154788932)"
       id="g29">
      <g
         fill="#b4b4b4"
         fill-opacity="1"
         id="g4">
        <g
           transform="translate(0.0383254,184.55431)"
           id="g3">
          <g
             id="g2">
            <path
               d="m 5.5625,-57.875 v -12.984375 c 0,-0.988281 0.242188,-1.914063 0.734375,-2.78125 0.5,-0.863281 1,-1.539063 1.5,-2.03125 L 22.625,-90.515625 C 24.113281,-92.003906 25.910156,-92.75 28.015625,-92.75 H 133.17187 c 0.75,0 1.39844,0.28125 1.95313,0.84375 0.55078,0.554688 0.82812,1.203125 0.82812,1.953125 v 12.796875 c 0,0.742188 -0.27734,1.390625 -0.82812,1.953125 -0.55469,0.554687 -1.20313,0.828125 -1.95313,0.828125 H 33.203125 c -0.617187,0 -1.542969,0.496094 -2.78125,1.484375 L 26.34375,-69.1875 c -0.867188,0.867188 -1.296875,1.917969 -1.296875,3.15625 v 3.890625 c 0,0.625 0.179687,1.246094 0.546875,1.859375 l 2.78125,3.34375 c 0.863281,0.867188 1.914062,1.296875 3.15625,1.296875 h 91.26563 c 0.98828,0 1.88281,0.1875 2.6875,0.5625 0.80078,0.367187 1.50781,0.855469 2.125,1.46875 L 138.75,-42.84375 c 1.47656,1.242188 2.21875,3.09375 2.21875,5.5625 v 15.390625 c 0,0.867187 -0.21875,1.734375 -0.65625,2.609375 -0.42969,0.867188 -0.94922,1.605469 -1.5625,2.21875 L 123.90625,-2.21875 C 122.41406,-0.738281 120.625,0 118.53125,0 H 11.5 C 10.757812,0 10.109375,-0.273438 9.546875,-0.828125 8.992188,-1.390625 8.71875,-2.039062 8.71875,-2.78125 v -12.796875 c 0,-0.738281 0.273438,-1.382813 0.828125,-1.9375 0.5625,-0.5625 1.210937,-0.84375 1.953125,-0.84375 h 101.82813 c 0.625,0 1.55078,-0.492187 2.78125,-1.484375 l 4.07812,-3.71875 c 0.875,-0.863281 1.3125,-1.910156 1.3125,-3.140625 v -4.453125 c 0,-0.75 -0.1875,-1.367188 -0.5625,-1.859375 l -2.78125,-3.34375 C 117.28906,-37.222656 116.23828,-37.65625 115,-37.65625 H 25.59375 c -0.867188,0 -1.730469,-0.210938 -2.59375,-0.640625 -0.867188,-0.4375 -1.605469,-0.898437 -2.21875,-1.390625 L 7.796875,-52.3125 C 6.304688,-53.789062 5.5625,-55.644531 5.5625,-57.875 Z m 0,0"
               id="path2" />
          </g>
        </g>
      </g>
      <g
         fill="#b4b4b4"
         fill-opacity="1"
         id="g7">
        <g
           transform="translate(146.55895,184.55431)"
           id="g6">
          <g
             id="g5">
            <path
               d="m 138.375,-74.375 c 1.47656,1.480469 2.21875,3.335938 2.21875,5.5625 v 26.515625 c 0,0.875 -0.21875,1.746094 -0.65625,2.609375 -0.42969,0.867188 -0.94922,1.605469 -1.5625,2.21875 l -16.70312,16.6875 c -1.48047,1.492188 -3.27344,2.234375 -5.375,2.234375 H 23.921875 V -3.34375 c 0,0.75 -0.277344,1.402344 -0.828125,1.953125 -0.554688,0.554687 -1.203125,0.828125 -1.953125,0.828125 H 8.34375 c -0.742188,0 -1.390625,-0.273438 -1.953125,-0.828125 C 5.835938,-1.941406 5.5625,-2.59375 5.5625,-3.34375 v -86.609375 c 0,-0.75 0.273438,-1.398437 0.828125,-1.953125 0.5625,-0.5625 1.210937,-0.84375 1.953125,-0.84375 h 108.51563 c 1.85156,0 3.45703,0.683594 4.8125,2.046875 z m -17.25,27.265625 v -17.4375 c 0,-0.738281 -0.1875,-1.359375 -0.5625,-1.859375 l -0.92187,-1.109375 -5.5625,-5.9375 C 113.21094,-74.316406 112.16016,-74.75 110.92188,-74.75 H 23.921875 v 37.84375 h 87.187505 c 0.86328,0 1.78906,-0.492188 2.78125,-1.484375 l 5.9375,-5.5625 c 0.86328,-0.875 1.29687,-1.925781 1.29687,-3.15625 z m 0,0"
               id="path4" />
          </g>
        </g>
      </g>
      <g
         fill="#b4b4b4"
         fill-opacity="1"
         id="g10">
        <g
           transform="translate(292.70863,184.55431)"
           id="g9">
          <g
             id="g8">
            <path
               d="m 5.5625,-89.953125 c 0,-0.75 0.273438,-1.398437 0.828125,-1.953125 0.5625,-0.5625 1.210937,-0.84375 1.953125,-0.84375 h 13.921875 c 0.738281,0 1.382813,0.28125 1.9375,0.84375 0.5625,0.554688 0.84375,1.203125 0.84375,1.953125 v 59.53125 c 0,1.242187 0.429687,2.292969 1.296875,3.15625 l 7.78125,7.421875 c 0.988281,0.992188 1.914062,1.484375 2.78125,1.484375 H 138.1875 c 0.73828,0 1.38281,0.28125 1.9375,0.84375 0.5625,0.554687 0.84375,1.199219 0.84375,1.9375 V -2.78125 c 0,0.742188 -0.28125,1.390625 -0.84375,1.953125 C 139.57031,-0.273438 138.92578,0 138.1875,0 H 29.859375 c -2.105469,0 -3.898437,-0.738281 -5.375,-2.21875 l -16.6875,-16.703125 c -0.5,-0.613281 -1,-1.351563 -1.5,-2.21875 C 5.804688,-22.003906 5.5625,-22.867188 5.5625,-23.734375 Z m 0,0"
               id="path7" />
          </g>
        </g>
      </g>
      <g
         fill="#b4b4b4"
         fill-opacity="1"
         id="g13">
        <g
           transform="translate(439.22926,184.55431)"
           id="g12">
          <g
             id="g11">
            <path
               d="m 138.92187,-73.828125 c 1.36329,1.367187 2.04688,2.976563 2.04688,4.828125 v 66.21875 c 0,0.742188 -0.28125,1.390625 -0.84375,1.953125 C 139.57031,-0.273438 138.92578,0 138.1875,0 h -12.42187 c -0.75,0 -1.40625,-0.273438 -1.96875,-0.828125 -0.55469,-0.5625 -0.82813,-1.210937 -0.82813,-1.953125 V -30.421875 H 23.5625 V -2.78125 c 0,0.742188 -0.28125,1.390625 -0.84375,1.953125 C 22.164062,-0.273438 21.519531,0 20.78125,0 H 8.34375 C 7.601562,0 6.953125,-0.273438 6.390625,-0.828125 5.835938,-1.390625 5.5625,-2.039062 5.5625,-2.78125 V -69 c 0,-1.851562 0.679688,-3.460938 2.046875,-4.828125 l 16.3125,-16.6875 c 1.488281,-1.488281 3.34375,-2.234375 5.5625,-2.234375 h 87.562505 c 2.21875,0 4.07031,0.746094 5.5625,2.234375 z M 23.5625,-46.5625 h 99.40625 v -17.609375 c 0,-1.238281 -0.43359,-2.289063 -1.29687,-3.15625 l -5.92188,-5.5625 -1.125,-0.9375 C 114.13281,-74.191406 113.51953,-74.375 112.78125,-74.375 H 33.765625 c -0.875,0 -1.496094,0.183594 -1.859375,0.546875 l -1.109375,0.9375 -5.9375,5.5625 c -0.867187,0.867187 -1.296875,1.917969 -1.296875,3.15625 z m 0,0"
               id="path10" />
          </g>
        </g>
      </g>
      <g
         fill="#b4b4b4"
         fill-opacity="1"
         id="g16">
        <g
           transform="translate(585.7499,184.55431)"
           id="g15">
          <g
             id="g14">
            <path
               d="m 164.15625,-92.75 c 0.73828,0 1.38281,0.28125 1.9375,0.84375 0.5625,0.554688 0.84375,1.203125 0.84375,1.953125 v 13.90625 c 0,0.742187 -0.28125,1.390625 -0.84375,1.953125 -0.55469,0.554688 -1.19922,0.828125 -1.9375,0.828125 H 96.078125 V -2.78125 c 0,0.742188 -0.28125,1.390625 -0.84375,1.953125 C 94.679688,-0.273438 94.035156,0 93.296875,0 H 79.390625 C 78.648438,0 78,-0.273438 77.4375,-0.828125 76.882812,-1.390625 76.609375,-2.039062 76.609375,-2.78125 V -73.265625 H 8.34375 c -0.742188,0 -1.390625,-0.273437 -1.953125,-0.828125 C 5.835938,-74.65625 5.5625,-75.304688 5.5625,-76.046875 v -13.90625 c 0,-0.75 0.273438,-1.398437 0.828125,-1.953125 0.5625,-0.5625 1.210937,-0.84375 1.953125,-0.84375 z m 0,0"
               id="path13" />
          </g>
        </g>
      </g>
      <g
         fill="#b4b4b4"
         fill-opacity="1"
         id="g19">
        <g
           transform="translate(758.23623,184.55431)"
           id="g18">
          <g
             id="g17">
            <path
               d="m 125.76563,-54.90625 c -0.75,0 -1.40625,-0.273438 -1.96875,-0.828125 -0.55469,-0.5625 -0.82813,-1.210937 -0.82813,-1.953125 v -6.484375 c 0,-1.363281 -0.43359,-2.414063 -1.29687,-3.15625 l -5.92188,-5.5625 C 114.75781,-73.878906 113.76953,-74.375 112.78125,-74.375 H 35.0625 c -0.867188,0 -1.792969,0.496094 -2.78125,1.484375 l -5.9375,5.5625 c -0.867188,0.867187 -1.296875,1.917969 -1.296875,3.15625 V -28.5625 c 0,1.242188 0.429687,2.292969 1.296875,3.15625 l 5.9375,5.5625 c 0.988281,0.992188 1.914062,1.484375 2.78125,1.484375 h 77.71875 c 0.98828,0 1.97656,-0.492187 2.96875,-1.484375 l 5.92188,-5.5625 c 0.86328,-0.75 1.29687,-1.800781 1.29687,-3.15625 v -6.5 c 0,-0.738281 0.27344,-1.382812 0.82813,-1.9375 0.5625,-0.5625 1.21875,-0.84375 1.96875,-0.84375 h 12.42187 c 0.73828,0 1.38281,0.28125 1.9375,0.84375 0.5625,0.554688 0.84375,1.199219 0.84375,1.9375 v 11.328125 c 0,1.855469 -0.68359,3.460937 -2.04688,4.8125 L 122.60938,-2.21875 C 121.11719,-0.738281 119.26563,0 117.04688,0 H 29.859375 c -2.105469,0 -3.898437,-0.738281 -5.375,-2.21875 l -16.6875,-16.703125 c -0.5,-0.613281 -1,-1.351563 -1.5,-2.21875 C 5.804688,-22.003906 5.5625,-22.867188 5.5625,-23.734375 V -69 c 0,-0.988281 0.242188,-1.914062 0.734375,-2.78125 0.5,-0.863281 1,-1.546875 1.5,-2.046875 l 16.6875,-16.6875 c 1.476563,-1.488281 3.269531,-2.234375 5.375,-2.234375 h 87.187505 c 2.21875,0 4.07031,0.746094 5.5625,2.234375 l 16.31249,16.6875 c 1.36329,1.367187 2.04688,2.976563 2.04688,4.828125 v 11.3125 c 0,0.742188 -0.28125,1.390625 -0.84375,1.953125 -0.55469,0.554687 -1.19922,0.828125 -1.9375,0.828125 z m 0,0"
               id="path16" />
          </g>
        </g>
      </g>
      <g
         fill="#b4b4b4"
         fill-opacity="1"
         id="g22">
        <g
           transform="translate(904.7568,184.55431)"
           id="g21">
          <g
             id="g20">
            <path
               d="m 138.92187,-73.828125 c 1.36329,1.367187 2.04688,2.976563 2.04688,4.828125 v 66.21875 c 0,0.742188 -0.28125,1.390625 -0.84375,1.953125 C 139.57031,-0.273438 138.92578,0 138.1875,0 h -12.42187 c -0.75,0 -1.40625,-0.273438 -1.96875,-0.828125 -0.55469,-0.5625 -0.82813,-1.210937 -0.82813,-1.953125 V -30.421875 H 23.5625 V -2.78125 c 0,0.742188 -0.28125,1.390625 -0.84375,1.953125 C 22.164062,-0.273438 21.519531,0 20.78125,0 H 8.34375 C 7.601562,0 6.953125,-0.273438 6.390625,-0.828125 5.835938,-1.390625 5.5625,-2.039062 5.5625,-2.78125 V -69 c 0,-1.851562 0.679688,-3.460938 2.046875,-4.828125 l 16.3125,-16.6875 c 1.488281,-1.488281 3.34375,-2.234375 5.5625,-2.234375 h 87.562505 c 2.21875,0 4.07031,0.746094 5.5625,2.234375 z M 23.5625,-46.5625 h 99.40625 v -17.609375 c 0,-1.238281 -0.43359,-2.289063 -1.29687,-3.15625 l -5.92188,-5.5625 -1.125,-0.9375 C 114.13281,-74.191406 113.51953,-74.375 112.78125,-74.375 H 33.765625 c -0.875,0 -1.496094,0.183594 -1.859375,0.546875 l -1.109375,0.9375 -5.9375,5.5625 c -0.867187,0.867187 -1.296875,1.917969 -1.296875,3.15625 z m 0,0"
               id="path19" />
          </g>
        </g>
      </g>
      <g
         fill="#b4b4b4"
         fill-opacity="1"
         id="g25">
        <g
           transform="translate(1051.2774,184.55431)"
           id="g24">
          <g
             id="g23">
            <path
               d="m 138.375,-74.375 c 1.47656,1.480469 2.21875,3.335938 2.21875,5.5625 v 26.515625 c 0,0.875 -0.21875,1.746094 -0.65625,2.609375 -0.42969,0.867188 -0.94922,1.605469 -1.5625,2.21875 l -16.70312,16.6875 c -1.48047,1.492188 -3.27344,2.234375 -5.375,2.234375 H 23.921875 V -3.34375 c 0,0.75 -0.277344,1.402344 -0.828125,1.953125 -0.554688,0.554687 -1.203125,0.828125 -1.953125,0.828125 H 8.34375 c -0.742188,0 -1.390625,-0.273438 -1.953125,-0.828125 C 5.835938,-1.941406 5.5625,-2.59375 5.5625,-3.34375 v -86.609375 c 0,-0.75 0.273438,-1.398437 0.828125,-1.953125 0.5625,-0.5625 1.210937,-0.84375 1.953125,-0.84375 h 108.51563 c 1.85156,0 3.45703,0.683594 4.8125,2.046875 z m -17.25,27.265625 v -17.4375 c 0,-0.738281 -0.1875,-1.359375 -0.5625,-1.859375 l -0.92187,-1.109375 -5.5625,-5.9375 C 113.21094,-74.316406 112.16016,-74.75 110.92188,-74.75 H 23.921875 v 37.84375 h 87.187505 c 0.86328,0 1.78906,-0.492188 2.78125,-1.484375 l 5.9375,-5.5625 c 0.86328,-0.875 1.29687,-1.925781 1.29687,-3.15625 z m 0,0"
               id="path22" />
          </g>
        </g>
      </g>
      <g
         fill="#b4b4b4"
         fill-opacity="1"
         id="g28">
        <g
           transform="translate(1197.4457,184.55431)"
           id="g27">
          <g
             id="g26" />
        </g>
      </g>
    </g>
  </g>
  <g
     transform="translate(1200.3992,-91.804307)"
     id="g38">
    <g
       clip-path="url(#f0fb8c9cb5)"
       id="g37">
      <g
         fill="#40d7fb"
         fill-opacity="1"
         id="g33">
        <g
           transform="translate(0.927837,184.55431)"
           id="g32">
          <g
             id="g31">
            <path
               d="m 140.96875,-61.203125 c 0,2.21875 -0.74219,4.074219 -2.21875,5.5625 l -9.65625,9.453125 9.65625,9.46875 c 1.47656,1.480469 2.21875,3.335938 2.21875,5.5625 v 11.125 c 0,0.867188 -0.21875,1.730469 -0.65625,2.59375 -0.42969,0.867188 -0.94922,1.609375 -1.5625,2.234375 L 125.76563,-2.21875 C 124.27344,-0.738281 122.47656,0 120.375,0 H 8.34375 C 7.601562,0 6.953125,-0.273438 6.390625,-0.828125 5.835938,-1.390625 5.5625,-2.039062 5.5625,-2.78125 v -12.796875 c 0,-0.738281 0.273438,-1.382813 0.828125,-1.9375 0.5625,-0.5625 1.210937,-0.84375 1.953125,-0.84375 H 115.1875 c 0.73828,0 1.66406,-0.492187 2.78125,-1.484375 l 2.21875,-1.859375 c 0.875,-0.738281 1.3125,-1.789063 1.3125,-3.15625 v -2.03125 c 0,-0.75 -0.1875,-1.367187 -0.5625,-1.859375 l -0.92187,-1.109375 -5.57813,-5.9375 c -0.86719,-0.863281 -1.91406,-1.296875 -3.14062,-1.296875 H 21.140625 c -0.742187,0 -1.390625,-0.273438 -1.953125,-0.828125 -0.554688,-0.5625 -0.828125,-1.210937 -0.828125,-1.953125 v -12.609375 c 0,-0.75 0.273437,-1.398437 0.828125,-1.953125 0.5625,-0.5625 1.210938,-0.84375 1.953125,-0.84375 h 90.156255 c 1.22656,0 2.27343,-0.429688 3.14062,-1.296875 l 5.57813,-5.9375 0.92187,-1.109375 c 0.375,-0.613281 0.5625,-1.226562 0.5625,-1.84375 v -2.421875 c 0,-1.351563 -0.4375,-2.40625 -1.3125,-3.15625 l -2.21875,-1.84375 C 116.85156,-73.878906 115.92578,-74.375 115.1875,-74.375 H 8.34375 c -0.742188,0 -1.390625,-0.273438 -1.953125,-0.828125 C 5.835938,-75.765625 5.5625,-76.414062 5.5625,-77.15625 v -12.796875 c 0,-0.75 0.273438,-1.398437 0.828125,-1.953125 0.5625,-0.5625 1.210937,-0.84375 1.953125,-0.84375 H 120.375 c 2.10156,0 3.89844,0.746094 5.39063,2.234375 L 138.75,-77.53125 c 0.61328,0.492188 1.13281,1.171875 1.5625,2.046875 0.4375,0.867187 0.65625,1.792969 0.65625,2.78125 z m 0,0"
               id="path30" />
          </g>
        </g>
      </g>
      <g
         fill="#40d7fb"
         fill-opacity="1"
         id="g36">
        <g
           transform="translate(147.44846,184.55431)"
           id="g35">
          <g
             id="g34">
            <path
               d="m 138.75,-74.375 c 1.47656,1.480469 2.21875,3.335938 2.21875,5.5625 v 45.078125 c 0,0.867187 -0.21875,1.730469 -0.65625,2.59375 -0.42969,0.867187 -0.94922,1.605469 -1.5625,2.21875 L 122.04688,-2.21875 C 120.56641,-0.738281 118.77344,0 116.67188,0 H 8.34375 C 7.601562,0 6.953125,-0.273438 6.390625,-0.828125 5.835938,-1.390625 5.5625,-2.039062 5.5625,-2.78125 v -87.171875 c 0,-0.75 0.273438,-1.398437 0.828125,-1.953125 0.5625,-0.5625 1.210937,-0.84375 1.953125,-0.84375 h 108.875 c 1.86328,0 3.47266,0.683594 4.82813,2.046875 z m -17.25,45.8125 v -35.984375 c 0,-0.738281 -0.1875,-1.359375 -0.5625,-1.859375 l -0.92187,-1.109375 -5.57813,-5.9375 C 113.57031,-74.316406 112.52344,-74.75 111.29688,-74.75 H 23.734375 v 56.390625 h 87.734375 c 0.875,0 1.80469,-0.492187 2.79688,-1.484375 l 5.92187,-5.5625 c 0.875,-0.863281 1.3125,-1.914062 1.3125,-3.15625 z m 0,0"
               id="path33" />
          </g>
        </g>
      </g>
    </g>
  </g>
</svg>
